<?xml version="1.0" standalone="no"?>
<!DOCTYPE svg PUBLIC "-//W3C//DTD SVG 20010904//EN"
 "http://www.w3.org/TR/2001/REC-SVG-20010904/DTD/svg10.dtd">
<svg version="1.0" xmlns="http://www.w3.org/2000/svg"
 width="500.000000pt" height="500.000000pt" viewBox="0 0 500.000000 500.000000"
 preserveAspectRatio="xMidYMid meet">

<g transform="translate(0.000000,500.000000) scale(0.100000,-0.100000)"
fill="#000000" stroke="none">
<path d="M575 3161 c-86 -14 -137 -31 -216 -72 -151 -78 -272 -221 -326 -383
-23 -70 -27 -97 -27 -206 0 -109 4 -135 27 -207 53 -160 176 -304 326 -382
105 -55 185 -74 306 -74 190 0 329 57 466 193 136 135 199 285 199 470 0 185
-63 335 -199 470 -93 92 -182 145 -293 174 -73 19 -199 27 -263 17z"/>
<path d="M2385 3155 c-38 -7 -96 -23 -128 -35 -74 -28 -193 -108 -242 -161
-247 -273 -240 -672 16 -928 218 -219 547 -259 816 -100 72 43 178 149 222
223 182 305 96 701 -194 895 -87 58 -161 88 -265 107 -91 16 -134 16 -225 -1z"/>
<path d="M4231 3159 c-205 -31 -398 -174 -490 -361 -54 -109 -71 -182 -71
-298 0 -116 17 -188 72 -300 33 -69 57 -101 127 -170 137 -136 276 -193 466
-193 121 0 201 19 306 74 150 78 273 222 326 382 23 72 27 98 27 207 0 109 -4
135 -27 207 -53 160 -176 304 -326 382 -126 65 -274 91 -410 70z"/>
</g>
</svg>
