<?xml version="1.0" standalone="no"?>
<!DOCTYPE svg PUBLIC "-//W3C//DTD SVG 20010904//EN"
 "http://www.w3.org/TR/2001/REC-SVG-20010904/DTD/svg10.dtd">
<svg version="1.0" xmlns="http://www.w3.org/2000/svg"
 width="800.000000pt" height="800.000000pt" viewBox="0 0 800.000000 800.000000"
 preserveAspectRatio="xMidYMid meet">

<g transform="translate(0.000000,800.000000) scale(0.100000,-0.100000)"
fill="#000000" stroke="none">
<path d="M2565 7928 c-51 -18 -82 -46 -105 -94 -44 -90 -8 -208 77 -250 37
-18 93 -19 1838 -24 l1800 -5 80 -22 c387 -104 674 -391 778 -778 l22 -80 5
-2740 c5 -2563 6 -2742 22 -2771 82 -149 304 -126 348 36 7 26 9 887 7 2757
l-3 2718 -21 96 c-132 596 -546 1011 -1142 1142 -95 21 -105 21 -1886 23
-1261 2 -1799 0 -1820 -8z"/>
<path d="M1505 6929 c-84 -13 -177 -44 -270 -92 -62 -32 -102 -63 -181 -142
-91 -90 -106 -110 -152 -205 -96 -201 -87 125 -87 -2990 0 -3114 -9 -2789 87
-2989 44 -93 61 -115 147 -201 139 -140 288 -216 473 -240 58 -8 709 -10 2158
-8 2352 4 2111 -6 2309 90 93 44 115 61 201 147 141 139 216 288 240 473 7 58
10 670 8 1993 -3 1856 -4 1911 -22 1948 -11 22 -37 51 -59 65 -34 23 -52 27
-107 27 -55 0 -73 -4 -107 -27 -22 -14 -48 -43 -59 -65 -18 -37 -19 -96 -24
-1994 l-5 -1955 -37 -75 c-47 -95 -112 -160 -207 -207 l-75 -37 -2110 0 -2111
0 -75 36 c-97 47 -162 112 -209 209 l-36 75 0 2735 0 2735 36 75 c47 97 112
162 209 209 l75 36 1646 3 1647 2 5 -282 c5 -326 10 -352 89 -518 46 -95 61
-115 152 -206 90 -89 112 -106 206 -151 173 -85 180 -86 616 -90 427 -5 446
-3 505 56 50 49 63 101 54 215 -16 208 -68 395 -162 578 -199 391 -546 651
-1002 751 -96 21 -104 21 -1901 23 -1010 1 -1831 -2 -1865 -7z m3785 -410
c161 -44 307 -128 434 -249 105 -100 168 -184 226 -305 43 -88 90 -225 90
-263 0 -11 -48 -13 -262 -10 l-263 3 -75 36 c-45 22 -95 56 -124 85 -29 29
-63 79 -85 124 l-36 75 -3 263 c-3 213 -1 262 10 262 7 0 47 -9 88 -21z"/>
</g>
</svg>
