<?xml version="1.0" standalone="no"?>
<!DOCTYPE svg PUBLIC "-//W3C//DTD SVG 20010904//EN"
 "http://www.w3.org/TR/2001/REC-SVG-20010904/DTD/svg10.dtd">
<svg version="1.0" xmlns="http://www.w3.org/2000/svg"
 width="500.000000pt" height="500.000000pt" viewBox="0 0 500.000000 500.000000"
 preserveAspectRatio="xMidYMid meet">

<g transform="translate(0.000000,500.000000) scale(0.100000,-0.100000)"
fill="#000000" stroke="none">
<path d="M583 4586 c-181 -44 -334 -202 -372 -384 -15 -75 -15 -2529 0 -2604
35 -166 160 -309 326 -371 52 -19 83 -22 318 -27 l260 -5 3 -91 c3 -108 -17
-215 -54 -292 -32 -65 -127 -169 -193 -211 -67 -43 -85 -89 -59 -146 26 -57
94 -67 273 -40 282 43 505 152 690 339 105 106 175 205 246 345 l50 101 372 0
372 0 26 100 25 100 -443 0 c-369 0 -449 -2 -472 -15 -21 -11 -37 -36 -66
-102 -74 -175 -156 -295 -283 -414 -93 -87 -205 -157 -320 -199 l-82 -30 35
69 c73 145 101 338 76 525 -13 95 -29 138 -58 152 -10 5 -155 11 -323 14 -283
5 -308 7 -351 26 -66 31 -114 78 -146 142 l-28 57 0 1275 0 1275 28 57 c32 64
80 111 146 142 l46 21 1875 0 1875 0 46 -21 c66 -31 114 -78 146 -142 l28 -57
3 -1067 2 -1067 82 -58 c44 -32 89 -64 99 -72 19 -13 19 16 19 1112 0 784 -3
1142 -11 1179 -39 187 -200 348 -387 387 -81 17 -3748 14 -3819 -3z"/>
<path d="M3880 1994 c-19 -3 -73 -14 -120 -26 -480 -117 -806 -580 -752 -1068
53 -478 409 -836 886 -891 411 -48 810 170 998 546 183 364 122 808 -153 1119
-111 126 -324 252 -499 296 -84 21 -282 34 -360 24z m243 -205 c160 -25 327
-109 440 -223 416 -415 255 -1127 -299 -1318 -177 -61 -351 -61 -528 0 -418
144 -637 607 -485 1026 129 356 496 573 872 515z"/>
<path d="M3933 1566 l-28 -24 -3 -221 -3 -220 -220 -3 -221 -3 -24 -28 c-16
-19 -24 -40 -24 -67 0 -27 8 -48 24 -67 l24 -28 221 -3 220 -3 3 -220 3 -221
28 -24 c38 -33 96 -33 134 0 l28 24 3 221 3 220 220 3 221 3 24 28 c16 19 24
40 24 67 0 27 -8 48 -24 67 l-24 28 -221 3 -220 3 -3 220 -3 221 -28 24 c-19
16 -40 24 -67 24 -27 0 -48 -8 -67 -24z"/>
</g>
</svg>
